<?xml version="1.0" encoding="UTF-8"?><!DOCTYPE svg PUBLIC "-//W3C//DTD SVG 1.1//EN" "http://www.w3.org/Graphics/SVG/1.1/DTD/svg11.dtd"><svg xmlns="http://www.w3.org/2000/svg" xmlns:xlink="http://www.w3.org/1999/xlink"><defs><linearGradient id="paint0_linear" x1="47.137" y1="4.199" x2="53.125" y2="15.452" gradientUnits="userSpaceOnUse"><stop offset=".281" stop-color="#B12E2A"/><stop offset="1" stop-color="#F47C45"/></linearGradient><linearGradient id="paint1_linear" x1="47.136" y1="12.158" x2="52.114" y2="22.662" gradientUnits="userSpaceOnUse"><stop offset=".281" stop-color="#B12E2A"/><stop offset="1" stop-color="#F47C45"/></linearGradient><linearGradient id="paint2_linear" x1=".846" y1="1.249" x2="45.95" y2="77.419" gradientUnits="userSpaceOnUse"><stop offset=".281" stop-color="#B12E2A"/><stop offset="1" stop-color="#F47C45"/></linearGradient><linearGradient id="paint3_linear" x1="7.147" y1="4.311" x2="19.998" y2="17.862" gradientUnits="userSpaceOnUse"><stop offset=".281" stop-color="#B12E2A"/><stop offset="1" stop-color="#F47C45"/></linearGradient><linearGradient id="paint4_linear" x1="11.093" y1="26.231" x2="20.604" y2="34.257" gradientUnits="userSpaceOnUse"><stop offset=".281" stop-color="#B12E2A"/><stop offset="1" stop-color="#F47C45"/></linearGradient><linearGradient id="paint5_linear" x1="19.038" y1="31.037" x2="20.449" y2="33.418" gradientUnits="userSpaceOnUse"><stop offset=".281" stop-color="#B12E2A"/><stop offset="1" stop-color="#F47C45"/></linearGradient><linearGradient id="paint6_linear" x1="47.084" y1="26.231" x2="56.594" y2="34.257" gradientUnits="userSpaceOnUse"><stop offset=".281" stop-color="#B12E2A"/><stop offset="1" stop-color="#F47C45"/></linearGradient><linearGradient id="paint7_linear" x1="43.032" y1="31.037" x2="44.442" y2="33.418" gradientUnits="userSpaceOnUse"><stop offset=".281" stop-color="#B12E2A"/><stop offset="1" stop-color="#F47C45"/></linearGradient><linearGradient id="paint8_linear" x1="26.169" y1="10.12" x2="28.796" y2="18.989" gradientUnits="userSpaceOnUse"><stop offset=".281" stop-color="#B12E2A"/><stop offset="1" stop-color="#F47C45"/></linearGradient><linearGradient id="paint9_linear" x1="31.035" y1="18.041" x2="32.445" y2="20.421" gradientUnits="userSpaceOnUse"><stop offset=".281" stop-color="#B12E2A"/><stop offset="1" stop-color="#F47C45"/></linearGradient><linearGradient id="paint10_linear" x1="26.169" y1="48.11" x2="28.796" y2="56.979" gradientUnits="userSpaceOnUse"><stop offset=".281" stop-color="#B12E2A"/><stop offset="1" stop-color="#F47C45"/></linearGradient><linearGradient id="paint11_linear" x1="31.035" y1="44.034" x2="32.445" y2="46.414" gradientUnits="userSpaceOnUse"><stop offset=".281" stop-color="#B12E2A"/><stop offset="1" stop-color="#F47C45"/></linearGradient><linearGradient id="paint12_linear" x1="6.174" y1="45.264" x2="16.704" y2="60.498" gradientUnits="userSpaceOnUse"><stop offset=".281" stop-color="#B12E2A"/><stop offset="1" stop-color="#F47C45"/></linearGradient><clipPath id="clip0"><path fill="#fff" d="M0 0h64v64H0z"/></clipPath><linearGradient id="paint0_linear" x1=".846" y1="1.232" x2="45.989" y2="77.424" gradientUnits="userSpaceOnUse"><stop offset=".24" stop-color="#B12E2A"/><stop offset="1" stop-color="#F47C45"/></linearGradient><linearGradient id="paint1_linear" x1="7.673" y1="7.975" x2="42.94" y2="67.439" gradientUnits="userSpaceOnUse"><stop offset=".24" stop-color="#B12E2A"/><stop offset="1" stop-color="#F47C45"/></linearGradient><linearGradient id="paint0_linear" x1=".846" y1="1.232" x2="45.989" y2="77.424" gradientUnits="userSpaceOnUse"><stop offset=".266" stop-color="#B12E2A"/><stop offset="1" stop-color="#F47C45"/></linearGradient><linearGradient id="paint1_linear" x1="7.955" y1=".537" x2="20.354" y2="41.617" gradientUnits="userSpaceOnUse"><stop offset=".266" stop-color="#B12E2A"/><stop offset="1" stop-color="#F47C45"/></linearGradient><linearGradient id="paint0_linear" x1=".846" y1="1.232" x2="45.989" y2="77.424" gradientUnits="userSpaceOnUse"><stop offset=".25" stop-color="#B12E2A"/><stop offset="1" stop-color="#F47C45"/></linearGradient><linearGradient id="paint1_linear" x1="8.773" y1="9.061" x2="42.422" y2="65.855" gradientUnits="userSpaceOnUse"><stop offset=".25" stop-color="#B12E2A"/><stop offset="1" stop-color="#F47C45"/></linearGradient><linearGradient id="paint2_linear" x1="47.044" y1="30.819" x2="48.342" y2="34.362" gradientUnits="userSpaceOnUse"><stop offset=".25" stop-color="#B12E2A"/><stop offset="1" stop-color="#F47C45"/></linearGradient><linearGradient id="paint3_linear" x1="13.024" y1="30.779" x2="14.323" y2="34.321" gradientUnits="userSpaceOnUse"><stop offset=".25" stop-color="#B12E2A"/><stop offset="1" stop-color="#F47C45"/></linearGradient><linearGradient id="paint4_linear" x1="30.804" y1="13.049" x2="34.049" y2="16.437" gradientUnits="userSpaceOnUse"><stop offset=".25" stop-color="#B12E2A"/><stop offset="1" stop-color="#F47C45"/></linearGradient><linearGradient id="paint5_linear" x1="30.764" y1="47.068" x2="34.009" y2="50.456" gradientUnits="userSpaceOnUse"><stop offset=".25" stop-color="#B12E2A"/><stop offset="1" stop-color="#F47C45"/></linearGradient><linearGradient id="paint6_linear" x1="23.885" y1="19.625" x2="34.522" y2="41.897" gradientUnits="userSpaceOnUse"><stop offset=".25" stop-color="#B12E2A"/><stop offset="1" stop-color="#F47C45"/></linearGradient><linearGradient id="paint7_linear" x1="14.796" y1="14.811" x2="16.558" y2="17.786" gradientUnits="userSpaceOnUse"><stop offset=".25" stop-color="#B12E2A"/><stop offset="1" stop-color="#F47C45"/></linearGradient><linearGradient id="paint8_linear" x1="39.437" y1="1.282" x2="41.199" y2="4.257" gradientUnits="userSpaceOnUse"><stop offset=".25" stop-color="#B12E2A"/><stop offset="1" stop-color="#F47C45"/></linearGradient></defs><symbol id="icon--coin" viewBox="0 0 64 64"><g clip-path="url(#clip0)"><path d="M47.557 10.9l4 1.999a.997.997 0 00.893 0l3.999-2a.993.993 0 00.529-.68 1.005 1.005 0 00-.195-.838l-4-4.999c-.38-.474-1.18-.474-1.56 0l-4 4.999a1.002 1.002 0 00.334 1.518zm4.446-4.294l2.446 3.058-2.446 1.223-2.445-1.223 2.445-3.058z" fill="url(#paint0_linear)"/><path d="M51.171 19.557a1.002 1.002 0 001.664 0l3.999-5.998a.998.998 0 00-1.279-1.449l-3.552 1.776-3.552-1.776a.999.999 0 00-1.279 1.448l4 6zm.385-3.66c.28.142.613.142.895 0l.632-.315-1.08 1.618-1.078-1.619.631.317z" fill="url(#paint1_linear)"/><path d="M51.996 40.007h-.079a11.938 11.938 0 00-5.943 1.624l-4.996-4.434c.013-.065.028-.13.028-.2v-9.824l5.24-4.65a11.936 11.936 0 005.746 1.468h.08a11.94 11.94 0 008.465-3.564A11.897 11.897 0 0064 11.928C63.958 5.344 58.58.018 51.996.018h-.079a11.941 11.941 0 00-8.465 3.564 11.902 11.902 0 00-3.463 8.498c.025 3.764 1.797 7.112 4.538 9.295l-4.878 4.328-7.193-3.597a1.002 1.002 0 00-.894 0l-7.393 3.696-4.852-4.305c.43-.33.845-.68 1.232-1.07a11.898 11.898 0 003.463-8.5C23.969 5.344 18.592.017 12.007.017h-.08a11.938 11.938 0 00-8.465 3.566A11.902 11.902 0 000 12.08c.042 6.583 5.42 11.91 12.003 11.91h.08a11.953 11.953 0 005.488-1.368l5.44 4.827v9.497l-5.166 4.584a11.936 11.936 0 00-5.838-1.523h-.08a11.942 11.942 0 00-8.465 3.564A11.902 11.902 0 000 52.07c.042 6.583 5.42 11.91 12.003 11.91h.08a11.94 11.94 0 008.465-3.564 11.897 11.897 0 003.463-8.498c-.024-3.727-1.76-7.049-4.454-9.232l4.899-4.348 7.105 3.553a1.004 1.004 0 00.895 0l6.905-3.453 4.924 4.369c-.287.24-.566.495-.833.765a11.902 11.902 0 00-3.463 8.498c.043 6.583 5.42 11.91 12.003 11.91h.08a11.94 11.94 0 008.465-3.564A11.897 11.897 0 0064 51.918c-.042-6.585-5.42-11.911-12.004-11.911zM41.988 12.068a9.914 9.914 0 012.885-7.08 9.953 9.953 0 017.058-2.971h.065c5.486 0 9.97 4.438 10.004 9.923a9.91 9.91 0 01-2.885 7.08 9.953 9.953 0 01-7.058 2.972h-.065c-5.487 0-9.967-4.438-10.003-9.924zM12.07 21.992h-.065c-5.487 0-9.968-4.438-10.003-9.924a9.91 9.91 0 012.883-7.08 9.953 9.953 0 017.058-2.971h.065c5.486 0 9.97 4.438 10.004 9.923a9.91 9.91 0 01-2.885 7.08 9.95 9.95 0 01-7.057 2.972zm9.942 29.937a9.91 9.91 0 01-2.885 7.08 9.953 9.953 0 01-7.058 2.972h-.065c-5.487 0-9.968-4.438-10.004-9.924a9.913 9.913 0 012.885-7.08 9.953 9.953 0 017.058-2.97h.065c5.486 0 9.97 4.437 10.004 9.922zm9.997-27.81L37.771 27l-5.763 2.881L26.246 27l5.762-2.881zm-6.998 4.499l5.999 2.999v7.762l-5.999-3v-7.761zm13.996 7.762l-5.998 2.999v-7.762l5.998-3v7.763zm13.052 25.6h-.065c-3.257 0-6.15-1.57-7.979-3.988h3.99a1 1 0 001-1v-4.806l2.07 5.177a1.001 1.001 0 001.858 0l2.07-5.178v4.807a1 1 0 001 1h3.98c-.267.353-.55.697-.867 1.017a9.95 9.95 0 01-7.057 2.972zm9.102-5.988h-4.158v-8.997a1 1 0 00-1.929-.372l-3.07 7.678-3.07-7.677a.999.999 0 00-1.929.37v8.998H42.83a9.902 9.902 0 01-.841-3.935 9.914 9.914 0 012.884-7.08 9.953 9.953 0 017.058-2.97h.065c5.486 0 9.97 4.437 10.004 9.922a9.926 9.926 0 01-.84 4.063z" fill="url(#paint2_linear)"/><path d="M16.794 7.63a1 1 0 00-.781-1.624h-3.005l.006-1.996-2-.007-.006 2.003H7.015v1.999h6.917l-6.698 8.373a1 1 0 00.78 1.624h2.997L11.005 20l2 .006.006-2.003h4.001v-2h-6.917l6.699-8.372z" fill="url(#paint3_linear)"/><path d="M11.014 26v11.997h2v-4.999h3.998v-2h-3.998V26h-2z" fill="url(#paint4_linear)"/><path d="M19.012 30.999h2v2h-2v-2z" fill="url(#paint5_linear)"/><path d="M53.003 37.997V26h-2V31h-3.999v2h4v4.998h1.999z" fill="url(#paint6_linear)"/><path d="M43.005 30.999h2v2h-2v-2z" fill="url(#paint7_linear)"/><path d="M31.009 16.003h2v-3.999h4.998v-2H26.01v2h4.999v3.999z" fill="url(#paint8_linear)"/><path d="M31.009 18.003h2v1.999h-2v-2z" fill="url(#paint9_linear)"/><path d="M33.008 47.994h-2v3.999H26.01v2h11.997v-2h-4.999v-3.999z" fill="url(#paint10_linear)"/><path d="M31.009 43.995h2v2h-2v-2z" fill="url(#paint11_linear)"/><path d="M15.013 46.994h-1v-2h-2v2h-.999v-2h-2v2H6.016v2h1v5.998h-1v2h3v2h2v-2h.999v2h2v-2h.999c1.654 0 3-1.346 3-3 0-.77-.302-1.467-.78-1.999.48-.532.78-1.229.78-2 0-1.653-1.346-2.999-3-2.999zm-5.998 2h5.998a1 1 0 010 2H9.015v-2zm5.998 5.998H9.015v-2h5.998a1 1 0 010 2z" fill="url(#paint12_linear)"/></g></symbol><symbol id="icon--dragon" viewBox="0 0 64 64"><path d="M54.625 9.375C48.587 3.325 40.55 0 32 0c-4.3 0-8.462.838-12.387 2.487l.724 1.738A29.917 29.917 0 0131 1.913h.063c.312-.013.625-.013.937-.013.313 0 .625.013.938.013h.024c7.675.237 14.863 3.35 20.325 8.8 5.45 5.45 8.563 12.637 8.8 20.312v.038c.013.312.013.625.013.937 0 .313-.013.625-.013.938v.012c-.237 7.688-3.337 14.875-8.8 20.337a29.935 29.935 0 01-20.3 8.8h-.05c-.312.013-.624.013-.937.013-.313 0-.625-.013-.938-.013h-.05c-7.675-.25-14.85-3.35-20.3-8.8C5.25 47.837 2.15 40.663 1.9 33v-.05c-.012-.313-.012-.625-.012-.938 0-.312.012-.625.012-.937 0-.063 0-.125.013-.188 0-.162.012-.337.024-.5.388-7.45 3.475-14.387 8.776-19.674A29.998 29.998 0 0117.2 5.775l-.938-1.65A32.293 32.293 0 004.489 15.637 31.988 31.988 0 000 32c0 8.55 3.325 16.587 9.375 22.625S23.45 64 32 64s16.587-3.325 22.625-9.375C60.675 48.575 64 40.55 64 32s-3.325-16.587-9.375-22.625z" fill="url(#paint0_linear)"/><path d="M32 7.012c-.313 0-.625.013-.938.025a24.836 24.836 0 00-16.037 6.65c-.463.425-.9.875-1.338 1.338a24.835 24.835 0 00-6.65 16.037c-.012.313-.025.625-.025.938 0 .312.013.625.025.937a24.788 24.788 0 003.8 12.325c.013.013.026.038.038.05.088.138.175.263.262.4.013.025.038.063.05.088.088.125.163.25.25.375.026.037.05.062.075.1.088.125.163.237.25.35l.075.112c.088.113.175.225.263.35.025.038.05.075.088.113l.262.337c.025.038.05.063.075.1.088.113.188.225.275.338.025.025.037.05.063.075.1.125.2.237.3.362l.024.025c.238.275.476.538.726.8.437.45.887.888 1.35 1.313a24.887 24.887 0 0015.775 6.412c.312.013.625.025.937.025.313 0 .625-.012.938-.025.837-.025 1.662-.1 2.475-.212l.3-.038c.075-.012.137-.025.212-.037l.413-.075c.037-.013.087-.013.124-.025.175-.038.35-.063.526-.1h.024c1.5-.313 2.938-.75 4.325-1.313l-.7-1.737c-1.325.537-2.7.95-4.087 1.225a11.513 11.513 0 01-.875-4.4c0-.888.263-8.775 9.55-13.863 1.887-1.037 3.525-2.25 4.837-3.6.938-.912 1.75-2 2.413-3.212.1-.188.137-.413.112-.638-.762-4.787-2.287-9.387-4.387-13.362C52.413 19.762 55.05 25.587 55.05 32a23.13 23.13 0 01-11.912 20.212l.912 1.638a25.08 25.08 0 009.55-9.4c.025-.038.038-.075.063-.113.062-.112.137-.237.2-.35.05-.1.1-.187.15-.287.025-.05.062-.113.087-.163.075-.137.15-.275.212-.412 0-.013.013-.013.013-.025a24.996 24.996 0 002.587-10.163c.013-.312.026-.625.026-.937 0-.313-.013-.625-.026-.938A24.887 24.887 0 0050.5 15.287a26.825 26.825 0 00-1.313-1.35c-.524-.5-1.075-.987-1.65-1.437-.012-.013-.024-.013-.024-.025-.138-.1-.263-.213-.4-.313a.173.173 0 00-.05-.037c-.138-.1-.263-.2-.4-.3-.013-.013-.038-.025-.05-.038l-.413-.3c-.013-.012-.025-.012-.038-.025a5.28 5.28 0 00-.437-.287l-.013-.013c-3.7-2.45-8.1-3.95-12.825-4.125A18.869 18.869 0 0032 7.012zM8.9 32c0-6.425 2.637-12.238 6.875-16.425-2.1 3.975-3.625 8.575-4.388 13.362a.96.96 0 00.113.638 13.274 13.274 0 002.412 3.212c1.313 1.35 2.95 2.563 4.838 3.6 9.288 5.088 9.55 12.975 9.55 13.863 0 1.525-.288 3-.863 4.4C16.876 52.512 8.9 43.175 8.9 32zm39.788-.638l-.026.025c-1.175 1.213-2.65 2.313-4.374 3.25C34 40.275 33.7 49.25 33.7 50.25c0 1.525.25 3 .737 4.412-.787.063-1.612.1-2.437.1-.825 0-1.65-.037-2.438-.1.488-1.412.738-2.9.738-4.412 0-1-.3-9.975-10.588-15.613-1.724-.937-3.187-2.037-4.374-3.25l-.025-.025a10.834 10.834 0 01-1.888-2.45c.65-3.837 1.787-7.537 3.35-10.85v.225c0 2.6.563 4.988 1.688 7.113l.037.075a37.69 37.69 0 007.938 10.1 37.985 37.985 0 005 3.812c.15.113.337.175.537.188a.954.954 0 00.612-.175 38.951 38.951 0 005.013-3.813 37.69 37.69 0 007.938-10.1l.037-.075c1.112-2.125 1.688-4.512 1.688-7.112v-.225c1.55 3.312 2.7 7.012 3.35 10.85-.563.912-1.2 1.725-1.925 2.437zm-4.963-19.25c.012.05.038.088.05.138a13.15 13.15 0 011.45 6.037c0 2.3-.5 4.4-1.488 6.25-.012.025-.025.038-.037.063a35.548 35.548 0 01-7.475 9.5c-1.325 1.2-2.75 2.3-4.238 3.287A35.893 35.893 0 0127.75 34.1a35.548 35.548 0 01-7.475-9.5c-.012-.025-.025-.038-.037-.063-.988-1.85-1.488-3.95-1.488-6.25 0-2.125.488-4.162 1.45-6.037a.61.61 0 00.05-.138A22.937 22.937 0 0131.975 8.9c4.3 0 8.313 1.175 11.75 3.212z" fill="url(#paint1_linear)"/></symbol><symbol id="icon--grafik" viewBox="0 0 64 64"><path d="M58.835 57.802V16.517h-8.252v41.285h-5.166V30.967h-8.252v26.835H32V26.835h-8.252v30.967h-5.165V32h-8.265v25.802h-4.12V0H4.132v4.132H2.066v2.066h2.066v7.232H2.066v2.066h2.066v7.232H2.066v2.066h2.066V32H2.066v2.066h2.066v7.232H2.066v2.066h2.066v7.231H2.066v2.066h2.066v5.166H0v2.066h4.132V64h2.066v-4.132H64v-2.066h-5.165zm-42.319.012h-4.132V34.066h4.133v23.748zm13.418-.012h-4.132V28.9h4.132v28.9zm13.43 0H39.23V33.033h4.133v24.769zm13.417.012H52.65V18.582h4.132v39.232z" fill="url(#paint0_linear)"/><path d="M10.318 27.868c1.713 0 3.1-1.386 3.1-3.1 0-.478-.114-.92-.316-1.322l9.6-9.6L36.12 27.263l21.392-21.38c.403.19.844.315 1.323.315 1.713 0 3.099-1.385 3.099-3.099 0-1.713-1.386-3.099-3.1-3.099a3.097 3.097 0 00-3.099 3.1c0 .478.114.919.315 1.322l-19.918 19.93-13.417-13.43-11.061 11.062a3.098 3.098 0 00-1.323-.315 3.097 3.097 0 00-3.1 3.1c0 1.713 1.386 3.099 3.087 3.099zM58.835 2.066c.567 0 1.033.466 1.033 1.033s-.466 1.033-1.033 1.033A1.038 1.038 0 0157.802 3.1c0-.567.466-1.033 1.033-1.033zM10.318 23.748c.567 0 1.033.466 1.033 1.033s-.466 1.033-1.033 1.033a1.038 1.038 0 01-1.033-1.033c0-.58.466-1.033 1.033-1.033z" fill="url(#paint1_linear)"/></symbol><symbol id="icon--time" viewBox="0 0 64 64"><path d="M57.171 12.242h1.978a1.25 1.25 0 000-2.498h-4.747c-.69 0-1.25.56-1.25 1.249v4.747a1.25 1.25 0 002.5 0v-1.375A29.406 29.406 0 0161.501 32c0 16.267-13.235 29.502-29.502 29.502S2.498 48.267 2.498 32 15.733 2.498 32 2.498c1.203 0 2.414.073 3.6.217a1.25 1.25 0 00.3-2.48A32.455 32.455 0 0032 0C23.453 0 15.416 3.329 9.373 9.373 3.329 15.416 0 23.453 0 32c0 8.547 3.329 16.584 9.373 22.627C15.416 60.671 23.453 64 32 64c8.547 0 16.584-3.329 22.627-9.373C60.671 48.583 64 40.547 64 32c0-7.213-2.41-14.137-6.829-19.758z" fill="url(#paint0_linear)"/><path d="M13.55 18.864a1.25 1.25 0 00-1.724.387c-2.851 4.505-4.114 9.921-3.554 15.253a23.915 23.915 0 006.857 14.367C19.78 53.523 25.89 55.848 32 55.848c6.11 0 12.22-2.325 16.871-6.977 9.303-9.303 9.303-24.44 0-33.742a23.916 23.916 0 00-14.344-6.855c-5.322-.564-10.732.689-15.235 3.527a1.25 1.25 0 001.333 2.113C29.11 8.565 40 9.791 47.105 16.896c8.328 8.328 8.328 21.88 0 30.209-8.329 8.328-21.88 8.328-30.21 0-7.006-7.007-8.25-18.159-2.958-26.517a1.25 1.25 0 00-.387-1.724z" fill="url(#paint1_linear)"/><path d="M48.24 33.27h1.54a1.25 1.25 0 000-2.499h-1.54a1.25 1.25 0 000 2.498z" fill="url(#paint2_linear)"/><path d="M12.97 31.98c0 .69.56 1.249 1.25 1.249h1.54a1.25 1.25 0 000-2.498h-1.54c-.69 0-1.25.559-1.25 1.249z" fill="url(#paint3_linear)"/><path d="M33.27 15.76v-1.54a1.25 1.25 0 00-2.499 0v1.54a1.25 1.25 0 002.498 0z" fill="url(#paint4_linear)"/><path d="M30.73 48.24v1.54a1.25 1.25 0 002.499 0v-1.54a1.25 1.25 0 00-2.498 0z" fill="url(#paint5_linear)"/><path d="M25.739 23.972a1.25 1.25 0 00-1.767 1.767l4.233 4.233A4.277 4.277 0 0027.698 32 4.308 4.308 0 0032 36.303 4.308 4.308 0 0036.303 32c0-.733-.184-1.423-.508-2.028l8.542-8.542a1.25 1.25 0 00-1.767-1.767l-8.542 8.543a4.277 4.277 0 00-2.028-.51c-.733 0-1.423.185-2.028.51l-4.233-4.234zM33.805 32c0 .995-.81 1.805-1.805 1.805-.995 0-1.805-.81-1.805-1.805 0-.995.81-1.805 1.805-1.805.995 0 1.805.81 1.805 1.805z" fill="url(#paint6_linear)"/><path d="M16.895 16.895c.233-.232.367-.555.367-.883 0-.329-.134-.65-.367-.883a1.257 1.257 0 00-.883-.367c-.329 0-.651.134-.883.367a1.26 1.26 0 00-.366.883c0 .33.133.65.366.883.232.232.554.366.883.366.33 0 .65-.134.883-.366z" fill="url(#paint7_linear)"/><path d="M40.653 3.732c.33 0 .652-.132.885-.366.232-.232.366-.553.366-.883 0-.328-.134-.65-.367-.883a1.26 1.26 0 00-.884-.366c-.328 0-.65.134-.883.366a1.259 1.259 0 00-.366.883 1.253 1.253 0 001.25 1.25z" fill="url(#paint8_linear)"/></symbol></svg>