<svg width="64" height="58" viewBox="0 0 64 58" fill="none" xmlns="http://www.w3.org/2000/svg">
<g clip-path="url(#clip0)">
<path d="M47.2979 40.3082C42.844 40.3082 39.2376 43.9078 39.2376 48.3533C39.2376 52.7988 42.7443 55.6353 47.2979 56.2988C47.8463 56.3818 48.3947 56.3984 48.9598 56.3984C52.5329 56.3984 55.7237 55.1543 58.1667 52.9149C59.114 52.0358 60.161 50.941 60.9089 49.8794C62.1553 48.1211 66.6258 40.7229 58.8814 32.1138C56.1891 29.128 55.9232 25.7275 57.1862 23.3887C56.3553 25.9266 56.6212 28.8295 59.3799 31.7987C67.274 40.3082 62.9364 48.4694 61.69 50.2775C60.7759 51.5879 59.8287 52.749 58.6487 53.8273C56.0894 56.1827 52.7157 57.7254 48.9598 57.7254C44.6222 57.7254 40.75 55.7348 38.2073 52.6163C37.1769 51.3557 33.9694 48.8675 33.986 44.5049V43.7916L37.5757 31.3508L51.3031 23.4053C52.0343 25.711 52.4498 28.0001 52.5827 30.5048C51.436 34.1707 49.2922 37.4551 47.2979 40.3082ZM45.3036 35.166C46.8658 33.6731 47.7134 30.0735 47.7134 30.0735C40.4508 30.5712 36.778 36.3769 35.8806 39.23C36.7946 37.1897 43.7414 36.6589 45.3036 35.166Z" fill="url(#paint0_linear)"/>
<path d="M28.6014 50.0786H31.9917H35.382L38.174 52.6166L32.2909 57.2777C32.1081 57.427 31.8588 57.427 31.676 57.2777L25.7928 52.6166L28.6014 50.0786Z" fill="url(#paint1_radial)"/>
<path d="M16.6689 40.2584C14.6746 37.4219 12.564 34.1541 11.4339 30.4882C11.5669 27.9835 11.9823 25.6944 12.7136 23.3887L26.4409 31.3508L30.0306 43.7916V44.5049C30.0473 48.8841 26.8398 51.3723 25.8094 52.6163C23.2667 55.7348 19.3944 57.7254 15.0569 57.7254C11.301 57.7254 7.9273 56.1827 5.36797 53.8273C4.18802 52.749 3.24073 51.5879 2.32668 50.2775C1.06363 48.4694 -3.25732 40.3082 4.63673 31.8319C7.39549 28.8626 7.67801 25.9432 6.83044 23.4218C8.09349 25.7607 7.82759 29.1612 5.1353 32.147C-2.60918 40.7395 1.86135 48.1542 3.10778 49.9125C3.85563 50.9742 4.90264 52.0689 5.84992 52.9481C8.2763 55.1875 11.4838 56.4315 15.0569 56.4315C15.6219 56.4315 16.1703 56.4149 16.7188 56.332C21.2724 55.6519 24.779 52.8154 24.779 48.3865C24.779 43.9409 21.1727 40.3414 16.7188 40.3414L16.6689 40.2584ZM28.1194 39.2466C27.222 36.3935 23.5492 30.5878 16.2867 30.0901C16.2867 30.0901 17.1343 33.6897 18.6964 35.1826C20.2586 36.6755 27.2054 37.1897 28.1194 39.2466Z" fill="url(#paint2_linear)"/>
<path d="M12.7129 23.406C11.9817 25.7117 11.5662 28.0008 11.4333 30.5056C12.58 30.1904 13.7932 30.0245 15.0396 30.0245C22.6677 30.0245 28.8667 36.1786 28.9165 43.7924H30.0134L26.4236 31.3516L12.7129 23.406Z" fill="url(#paint3_linear)"/>
<path d="M12.7129 23.406C11.9817 25.7117 11.5662 28.0008 11.4333 30.5056C12.58 30.1904 13.7932 30.0245 15.0396 30.0245C22.6677 30.0245 28.8667 36.1786 28.9165 43.7924H30.0134L26.4236 31.3516L12.7129 23.406Z" fill="url(#paint4_linear)"/>
<path d="M51.2864 23.4053C52.0177 25.711 52.4331 28.0001 52.5661 30.5048C51.4194 30.1897 50.2062 30.0238 48.9598 30.0238C41.3316 30.0238 35.1327 36.1779 35.0829 43.7917H33.986L37.5757 31.3508L51.2864 23.4053Z" fill="url(#paint5_linear)"/>
<path d="M51.2864 23.4053C52.0177 25.711 52.4331 28.0001 52.5661 30.5048C51.4194 30.1897 50.2062 30.0238 48.9598 30.0238C41.3316 30.0238 35.1327 36.1779 35.0829 43.7917H33.986L37.5757 31.3508L51.2864 23.4053Z" fill="url(#paint6_linear)"/>
<path d="M7.99381 13.1873C7.99381 8.77494 10.038 4.8934 13.2288 2.35547C14.5251 1.32702 16.0042 0.514221 17.6162 0C16.4529 2.23935 15.8048 4.77728 15.8048 7.4645C15.8048 10.2347 16.4197 12.8224 17.6329 15.0949C19.9097 19.3082 22.9011 23.0902 26.4243 26.2751C28.1527 27.8343 30.0307 29.2609 32.0083 30.5215C33.986 29.2609 35.864 27.8509 37.5923 26.2751C41.1322 23.0902 44.107 19.3082 46.3838 15.0949C47.597 12.8224 48.2119 10.2347 48.2119 7.4645C48.2119 4.77728 47.5472 2.23935 46.3838 0C47.9959 0.514221 49.475 1.32702 50.7713 2.35547C53.9621 4.87681 56.0229 8.77494 56.0229 13.1873C56.0229 13.7679 56.0894 15.7086 55.0922 18.1802C54.3277 20.0546 53.2309 21.7466 51.8016 23.1234C50.4887 24.467 48.7936 25.8106 46.55 27.0215C36.1797 32.6945 35.0829 41.4363 35.0829 43.7752C35.0829 49.2657 38.1906 52.6165 38.1906 52.6165L35.3986 50.0785H33.1052H32.0083H28.6014L25.8094 52.6165C25.8094 52.6165 28.9172 49.2823 28.9172 43.7752C28.9172 41.4363 27.8203 32.6945 17.4501 27.0215C15.2231 25.794 13.5113 24.467 12.1984 23.1234C10.7692 21.7466 9.67233 20.0546 8.90786 18.1802C7.91071 15.7086 7.99381 13.7679 7.99381 13.1873Z" fill="url(#paint7_radial)"/>
<path d="M44.0405 27.486C45.5695 26.2087 46.1345 25.8106 46.7827 25.2964C47.1317 25.0144 47.5139 24.6992 48.0624 24.2016C50.2561 22.2442 50.8544 21.7134 52.0842 19.8224C52.2337 19.5902 52.3667 19.3746 52.4996 19.1589C52.7489 18.6779 52.9982 18.1802 53.1976 17.666C54.012 15.6589 54.1283 14.0001 54.1283 13.121C54.1283 13.038 54.1283 12.9717 54.1283 12.8887C54.1283 12.7892 54.1283 12.6897 54.1283 12.6233C54.1283 8.16122 52.0842 4.2465 48.8933 1.67539V1.70857C48.2119 1.19435 47.4475 0.72989 46.4835 0.0332031C48.0624 0.547424 49.5082 1.34364 50.7879 2.35549C53.9621 4.87684 56.0229 8.77497 56.0229 13.1873C56.0229 13.7679 56.0894 15.7087 55.0922 18.1802C54.3277 20.0547 53.2309 21.7466 51.8016 23.1234C50.4887 24.467 48.7936 25.8106 46.55 27.0215C41.1488 29.9742 38.2737 33.7562 36.7448 37.0406C37.5924 34.4694 40.966 30.0571 44.0405 27.486Z" fill="url(#paint8_linear)"/>
<path d="M19.9595 27.486C18.4306 26.2087 17.8655 25.8106 17.2174 25.2964C16.8684 25.0144 16.4862 24.6992 15.9377 24.2016C13.744 22.2442 13.1457 21.7134 11.9159 19.8224C11.7664 19.5902 11.6334 19.3746 11.5004 19.1589C11.2512 18.6779 11.0019 18.1802 10.8024 17.666C9.98811 15.6589 9.87178 14.0001 9.87178 13.121C9.87178 13.038 9.87178 12.9717 9.87178 12.8887C9.87178 12.7892 9.87178 12.6897 9.87178 12.6233C9.87178 8.16122 11.9159 4.2465 15.1068 1.67539V1.70857C15.7882 1.19435 16.5526 0.72989 17.5165 0.0332031C15.9377 0.547424 14.4919 1.34364 13.2122 2.35549C10.038 4.87684 7.99383 8.77497 7.99383 13.1873C7.99383 13.7679 7.92735 15.7087 8.9245 18.1802C9.68897 20.0547 10.7858 21.7466 12.2151 23.1234C13.528 24.467 15.2231 25.8106 17.4667 27.0215C22.8679 29.9742 25.743 33.7562 27.2719 37.0406C26.4077 34.4694 23.0341 30.0571 19.9595 27.486Z" fill="url(#paint9_linear)"/>
<path d="M2.3267 50.2775C1.06365 48.4694 -3.25731 40.3083 4.63675 31.8319C7.39551 28.8627 7.67804 25.9432 6.83047 23.4219C8.09352 25.7608 7.82761 29.1613 5.13532 32.1471C-2.60916 40.7395 1.86137 48.1543 3.1078 49.9126" fill="#D53038"/>
<path d="M60.8923 49.8794C62.1387 48.1211 66.6093 40.7229 58.8648 32.1138C56.1725 29.128 55.9066 25.7275 57.1696 23.3887C56.3387 25.9266 56.6046 28.8295 59.3633 31.7987C67.274 40.3082 62.9364 48.4694 61.69 50.2775" fill="#D53038"/>
</g>
<defs>
<linearGradient id="paint0_linear" x1="41.6313" y1="57.5122" x2="62.443" y2="14.2064" gradientUnits="userSpaceOnUse">
<stop stop-color="#FF9E4B"/>
<stop offset="0.0738649" stop-color="#F78747"/>
<stop offset="0.2274" stop-color="#E34E3D"/>
<stop offset="0.3577" stop-color="#D11833"/>
<stop offset="0.4677" stop-color="#980F1F"/>
<stop offset="0.6323" stop-color="#3D0000"/>
</linearGradient>
<radialGradient id="paint1_radial" cx="0" cy="0" r="1" gradientUnits="userSpaceOnUse" gradientTransform="translate(32.0005 59.6422) rotate(180) scale(11.5828 11.5611)">
<stop stop-color="#FF9E4B"/>
<stop offset="0.126" stop-color="#F17444"/>
<stop offset="0.3419" stop-color="#DA3238"/>
<stop offset="0.4435" stop-color="#D11833"/>
<stop offset="0.52" stop-color="#BB142B"/>
<stop offset="0.6799" stop-color="#810B18"/>
<stop offset="0.8519" stop-color="#3D0000"/>
</radialGradient>
<linearGradient id="paint2_linear" x1="22.3698" y1="57.5122" x2="1.55804" y2="14.2064" gradientUnits="userSpaceOnUse">
<stop stop-color="#FF9E4B"/>
<stop offset="0.0738649" stop-color="#F78747"/>
<stop offset="0.2274" stop-color="#E34E3D"/>
<stop offset="0.3577" stop-color="#D11833"/>
<stop offset="0.4677" stop-color="#980F1F"/>
<stop offset="0.6323" stop-color="#3D0000"/>
</linearGradient>
<linearGradient id="paint3_linear" x1="24.4423" y1="34.9066" x2="8.18839" y2="28.9993" gradientUnits="userSpaceOnUse">
<stop stop-color="#D11833"/>
<stop offset="0.1484" stop-color="#CD1732"/>
<stop offset="0.2887" stop-color="#C2162E"/>
<stop offset="0.4258" stop-color="#AF1227"/>
<stop offset="0.5609" stop-color="#940E1E"/>
<stop offset="0.6946" stop-color="#710812"/>
<stop offset="0.8255" stop-color="#480204"/>
<stop offset="0.8551" stop-color="#3D0000"/>
</linearGradient>
<linearGradient id="paint4_linear" x1="19.8791" y1="35.8843" x2="23.3262" y2="30.5607" gradientUnits="userSpaceOnUse">
<stop stop-color="#D11833" stop-opacity="0"/>
<stop offset="0.1329" stop-color="#C7162F" stop-opacity="0.1329"/>
<stop offset="0.3569" stop-color="#AD1226" stop-opacity="0.3569"/>
<stop offset="0.6445" stop-color="#820B16" stop-opacity="0.6445"/>
<stop offset="0.9816" stop-color="#470101" stop-opacity="0.9816"/>
<stop offset="1" stop-color="#440000"/>
</linearGradient>
<linearGradient id="paint5_linear" x1="39.558" y1="34.9059" x2="55.812" y2="28.9986" gradientUnits="userSpaceOnUse">
<stop stop-color="#D11833"/>
<stop offset="0.1484" stop-color="#CD1732"/>
<stop offset="0.2887" stop-color="#C2162E"/>
<stop offset="0.4258" stop-color="#AF1227"/>
<stop offset="0.5609" stop-color="#940E1E"/>
<stop offset="0.6946" stop-color="#710812"/>
<stop offset="0.8255" stop-color="#480204"/>
<stop offset="0.8551" stop-color="#3D0000"/>
</linearGradient>
<linearGradient id="paint6_linear" x1="44.1212" y1="35.8835" x2="40.6742" y2="30.56" gradientUnits="userSpaceOnUse">
<stop stop-color="#D11833" stop-opacity="0"/>
<stop offset="0.1329" stop-color="#C7162F" stop-opacity="0.1329"/>
<stop offset="0.3569" stop-color="#AD1226" stop-opacity="0.3569"/>
<stop offset="0.6445" stop-color="#820B16" stop-opacity="0.6445"/>
<stop offset="0.9816" stop-color="#470101" stop-opacity="0.9816"/>
<stop offset="1" stop-color="#440000"/>
</linearGradient>
<radialGradient id="paint7_radial" cx="0" cy="0" r="1" gradientUnits="userSpaceOnUse" gradientTransform="translate(32.0005 49.8214) rotate(180) scale(37.554 66.9865)">
<stop stop-color="#FF9E4B"/>
<stop offset="0.415" stop-color="#DE3F3A"/>
<stop offset="0.6079" stop-color="#D11833"/>
<stop offset="0.6698" stop-color="#D21C34"/>
<stop offset="0.7331" stop-color="#D72836"/>
<stop offset="0.7971" stop-color="#DE3D3A"/>
<stop offset="0.8615" stop-color="#E85A3F"/>
<stop offset="0.9257" stop-color="#F47E45"/>
<stop offset="0.9728" stop-color="#FF9E4B"/>
</radialGradient>
<linearGradient id="paint8_linear" x1="29.5759" y1="42.0587" x2="58.4971" y2="-2.72054" gradientUnits="userSpaceOnUse">
<stop offset="0.1851" stop-color="#EC6841"/>
<stop offset="0.1963" stop-color="#E7633F"/>
<stop offset="0.2956" stop-color="#BF3E30"/>
<stop offset="0.3865" stop-color="#A32324"/>
<stop offset="0.4653" stop-color="#91131D"/>
<stop offset="0.523" stop-color="#8B0D1B"/>
<stop offset="0.5779" stop-color="#981420"/>
<stop offset="0.6783" stop-color="#B9272C"/>
<stop offset="0.7709" stop-color="#DD3C39"/>
<stop offset="0.8334" stop-color="#E95D3F"/>
</linearGradient>
<linearGradient id="paint9_linear" x1="34.426" y1="42.0587" x2="5.50485" y2="-2.72051" gradientUnits="userSpaceOnUse">
<stop offset="0.1851" stop-color="#EC6841"/>
<stop offset="0.1963" stop-color="#E7633F"/>
<stop offset="0.2956" stop-color="#BF3E30"/>
<stop offset="0.3865" stop-color="#A32324"/>
<stop offset="0.4653" stop-color="#91131D"/>
<stop offset="0.523" stop-color="#8B0D1B"/>
<stop offset="0.5779" stop-color="#981420"/>
<stop offset="0.6783" stop-color="#B9272C"/>
<stop offset="0.7709" stop-color="#DD3C39"/>
<stop offset="0.8334" stop-color="#E95D3F"/>
</linearGradient>
<clipPath id="clip0">
<rect width="64" height="57.7255" fill="white" transform="matrix(-1 0 0 1 64 0)"/>
</clipPath>
</defs>
</svg>
