<svg width="87" height="80" viewBox="0 0 87 80" fill="none" xmlns="http://www.w3.org/2000/svg">
<g clip-path="url(#clip0)">
<path d="M16.2365 7.77948C20.7903 1.82632 26.8383 -0.237126 33.8351 0.0237692C40.9267 0.284665 46.6189 2.94105 49.9157 9.89036C50.3663 9.32113 50.6747 8.98908 50.9118 8.6096C53.8529 3.88976 58.0746 1.1385 63.5771 0.379536C69.388 -0.426868 74.9379 0.260947 79.7764 3.91348C83.1917 6.49872 85.3026 9.96151 86.0378 14.1833C86.441 16.6262 86.6782 19.1166 86.702 21.6069C86.7731 32.0665 86.7257 42.526 86.7257 52.9855C86.7257 54.6932 86.7257 54.6932 85.018 54.6932C80.7251 54.6932 76.4084 54.6695 72.1155 54.7169C71.0245 54.7406 70.6925 54.3611 70.6925 53.2938C70.7399 43.7356 70.7636 34.1773 70.6925 24.6428C70.6687 22.3659 70.5739 20.0416 70.0758 17.8358C69.0797 13.5192 66.8976 11.8115 62.4624 11.3846C58.0272 10.9577 54.6593 12.7128 53.165 16.5313C52.5247 18.1679 52.1452 19.9467 52.0029 21.7018C51.742 24.6902 51.7183 27.7024 51.6945 30.6908C51.6471 38.1856 51.6708 45.6805 51.6945 53.199C51.6945 54.3849 51.3625 54.7644 50.1529 54.7644C45.8837 54.6932 41.6382 54.7406 37.369 54.7406C35.7088 54.7406 35.7088 54.7406 35.7088 53.1278C35.6851 42.6683 35.685 32.2562 35.6613 21.8204C35.6613 19.6384 35.353 17.48 34.3806 15.4877C33.2658 13.2346 31.4396 11.7878 28.9729 11.5743C27.0281 11.3846 24.9883 11.3609 23.1146 11.8115C19.2486 12.7839 17.4698 15.7486 16.948 19.5198C16.7583 20.9191 16.6871 22.3422 16.6871 23.7652C16.6634 33.5607 16.6871 43.3561 16.6871 53.1278C16.6871 54.622 16.6397 54.6932 15.1929 54.6932C10.8051 54.6932 6.44105 54.6695 2.05326 54.7169C0.938529 54.7406 0.653916 54.3374 0.653916 53.2701C0.677633 40.7946 0.725069 28.3191 0.677633 15.8435C0.630198 11.4794 0.369303 7.11538 0.226996 2.72759C0.17956 1.25709 0.250714 1.18594 1.72121 1.18594C5.75323 1.18594 9.78525 1.18594 13.7936 1.18594C15.4301 1.18594 15.4301 1.20966 15.5724 2.79875C15.691 4.10322 15.7858 5.38398 15.9282 6.68846C15.9519 6.92564 16.0705 7.18653 16.2365 7.77948Z" fill="white"/>
<path d="M43.3933 80.0002C29.4947 80.0002 15.5961 80.0002 1.72121 80.0002C0.179552 80.0002 0.132116 79.9527 0.108398 78.4111C0.108398 75.0194 0.108398 71.6278 0.108398 68.2362C0.108398 66.8131 0.179552 66.7419 1.69749 66.7419C14.173 66.7419 26.6486 66.7419 39.1241 66.7419C54.3509 66.7419 69.6014 66.7419 84.8282 66.7419C86.7257 66.7419 86.7257 66.7419 86.7257 68.6394C86.7257 71.865 86.7257 75.1143 86.7257 78.3399C86.7257 79.9765 86.7019 80.0239 85.0891 80.0239C71.1905 80.0002 57.2919 80.0002 43.3933 80.0002Z" fill="white"/>
</g>
<defs>
<clipPath id="clip0">
<rect width="86.6173" height="80" fill="white" transform="translate(0.108398)"/>
</clipPath>
</defs>
</svg>
