<svg width="53" height="80" viewBox="0 0 53 80" fill="none" xmlns="http://www.w3.org/2000/svg">
<path d="M52.3161 43.9585C52.3161 47.9973 52.3161 51.8404 52.3161 55.6695C52.3161 58.5484 52.3021 61.4272 52.3161 64.3201C52.3161 65.1027 52.2882 65.7455 51.4217 66.2346C43.3721 70.7905 35.3645 75.4022 27.3149 80C26.672 79.2174 26.9795 78.4348 26.9655 77.7081C26.9375 71.8107 26.9655 65.8992 26.9375 60.0018C26.9375 58.9676 27.0214 58.185 28.0975 57.5841C35.8536 53.2099 43.5818 48.7659 51.3099 44.3638C51.5475 44.238 51.813 44.1541 52.3161 43.9585Z" fill="#FEFEFE"/>
<path d="M3.85086 11.0613C10.1117 7.38592 16.051 3.92013 21.9624 0.412406C22.759 -0.0627436 23.346 -0.174543 24.2264 0.328556C30.2776 3.8782 36.3567 7.35797 42.4218 10.8517C42.4218 11.5505 41.8209 11.6343 41.4436 11.8579C35.7977 15.142 30.1518 18.3982 24.4919 21.6404C23.8491 22.0177 23.2481 22.5208 22.3817 22.0038C16.3026 18.3982 10.2095 14.8066 3.85086 11.0613Z" fill="#FEFEFE"/>
<path d="M0.245359 47.3124C6.50615 50.9179 12.4455 54.3697 18.4128 57.7657C19.1815 58.1989 19.2653 58.7439 19.2653 59.4846C19.2513 65.8851 19.2374 72.2857 19.2793 78.6862C19.2933 79.944 19.0417 80.1257 17.9377 79.4828C12.4315 76.2546 6.89745 73.0683 1.34938 69.896C0.608709 69.4767 0.231384 69.0575 0.231384 68.1211C0.259334 61.2874 0.245359 54.4676 0.245359 47.3124Z" fill="#FEFEFE"/>
<path d="M0.245357 17.6436C2.13198 18.7057 3.76705 19.614 5.37418 20.5504C9.56668 22.968 13.7452 25.4136 17.9517 27.7894C18.8181 28.2785 19.2793 28.7676 19.2653 29.8717C19.2094 36.6216 19.2374 43.3715 19.2374 50.4708C17.9377 49.7301 16.8197 49.0873 15.7017 48.4444C10.9781 45.7053 6.22665 42.9802 1.48913 40.2411C0.916157 39.9057 0.217407 39.7101 0.217407 38.7737C0.259332 31.8421 0.245357 24.9105 0.245357 17.6436Z" fill="#FEFEFE"/>
<path d="M26.9655 50.1633C26.9655 43.3575 26.9655 36.6635 26.9655 29.9835C26.9655 29.2987 26.8537 28.6139 27.6503 28.1667C33.6595 24.7289 39.6548 21.2631 45.9715 17.6156C45.9715 21.5286 45.9715 25.0922 45.9715 28.6419C45.9715 31.8002 45.9715 34.9725 45.9715 38.1309C45.9715 38.9135 45.9436 39.5703 45.0911 40.0455C39.2216 43.3575 33.394 46.7395 27.5525 50.0935C27.4547 50.1773 27.3009 50.1354 26.9655 50.1633Z" fill="#FEFEFE"/>
</svg>
