<svg width="55" height="80" viewBox="0 0 55 80" fill="none" xmlns="http://www.w3.org/2000/svg">
<path d="M16.0975 64.7361C16.0975 63.3671 16.0975 62.006 16.0975 60.637C16.0975 60.497 16.082 60.3414 16.1364 60.217C16.2764 59.8903 16.4864 59.6569 16.8909 59.6725C17.272 59.6881 17.4743 59.9059 17.5909 60.2325C17.6298 60.3492 17.6454 60.4814 17.6454 60.6137C17.6454 62.9238 17.6532 65.2417 17.6454 67.5518C17.6454 67.7229 17.6065 67.9174 17.5287 68.0729C17.2565 68.6174 16.5642 68.6719 16.2453 68.1507C15.4675 66.8518 14.7208 65.5295 13.9507 64.215C13.7874 63.9272 13.6163 63.6472 13.3907 63.3827C13.3907 63.6472 13.3907 63.9116 13.3907 64.1761C13.3907 65.3428 13.3907 66.5018 13.3907 67.6685C13.3907 68.1896 13.0874 68.5007 12.6285 68.5007C12.1851 68.493 11.8895 68.1896 11.8895 67.6918C11.8817 65.2884 11.8895 62.8771 11.8817 60.4737C11.8817 60.0847 12.0606 59.8125 12.4107 59.7114C12.7762 59.5947 13.0951 59.7192 13.3052 60.077C14.0674 61.3915 14.8297 62.706 15.5919 64.0205C15.7319 64.2616 15.8797 64.5105 16.0197 64.7517C16.0431 64.7517 16.0742 64.7439 16.0975 64.7361Z" fill="white"/>
<path d="M20.1889 66.0116C20.3211 66.5483 20.64 66.8594 21.1378 66.9994C21.7134 67.1628 22.1723 66.9683 22.5534 66.5328C22.919 66.1127 23.3779 66.0894 23.7124 66.4783C23.9691 66.7817 23.9535 67.1472 23.6502 67.4895C22.8723 68.3995 21.6667 68.7418 20.5622 68.3684C19.4888 68.0106 18.7188 66.9917 18.6877 65.7783C18.6721 65.1482 18.6799 64.5026 18.8277 63.8959C19.131 62.6592 20.3911 61.8658 21.6356 62.0292C22.9346 62.2003 23.9224 63.2737 23.9613 64.5726C23.9691 64.806 23.9691 65.0393 23.9613 65.2727C23.9457 65.7083 23.6657 65.9883 23.2301 65.9961C22.2968 66.0038 21.3634 65.9961 20.4378 65.9961C20.36 65.9961 20.29 66.0116 20.1889 66.0116ZM20.1966 64.5182C20.9045 64.5182 21.5889 64.5182 22.2734 64.5182C22.3356 64.5182 22.3901 64.5026 22.4523 64.4949C22.3668 63.8882 21.9701 63.5226 21.3945 63.507C20.7333 63.4837 20.3444 63.8026 20.1966 64.5182Z" fill="white"/>
<path d="M39.4243 68.4851C39.0743 68.4851 38.7243 68.5006 38.3742 68.4851C37.8842 68.454 37.4953 68.1973 37.1764 67.8395C36.9353 67.5673 36.9586 67.2406 37.1997 66.9606C37.4564 66.665 37.8609 66.5561 38.1253 66.7894C38.4365 67.0695 38.7709 67.0695 39.1287 67.0695C39.4632 67.0617 39.8054 67.0772 40.1399 67.0695C40.5521 67.0617 40.7777 66.8594 40.7777 66.5017C40.7777 66.1594 40.5444 65.9416 40.1321 65.9338C39.7432 65.9261 39.3543 65.9338 38.9654 65.9338C37.8453 65.9261 37.0208 65.1871 36.9431 64.106C36.8731 63.0948 37.6353 62.177 38.7165 62.0836C39.3776 62.0214 40.0621 62.0603 40.731 62.1225C41.1744 62.1614 41.5555 62.4103 41.7966 62.8148C41.9911 63.1337 41.9289 63.4604 41.6255 63.7093C41.3533 63.9349 41.0266 63.9582 40.7699 63.7404C40.5366 63.5459 40.2954 63.5226 40.0232 63.5226C39.6576 63.5304 39.2998 63.5226 38.9343 63.5226C38.6231 63.5226 38.4442 63.6704 38.4287 63.9815C38.4054 64.3082 38.6076 64.456 38.9032 64.4715C39.4321 64.4949 39.961 64.4793 40.4899 64.5182C41.5011 64.596 42.2478 65.4905 42.24 66.5717C42.2322 67.575 41.4233 68.4462 40.4432 68.5006C40.0932 68.5006 39.7588 68.4851 39.4243 68.4851Z" fill="white"/>
<path d="M36.2041 64.4094C36.1653 65.0783 36.2041 65.7628 36.0797 66.4162C35.8775 67.4974 34.8196 68.3685 33.7851 68.4852C32.2528 68.6563 31.2417 67.824 30.8216 66.8518C30.6583 66.4629 30.5805 66.0117 30.565 65.5839C30.5261 64.7205 30.5494 63.8494 30.5572 62.986C30.5572 62.426 30.8605 62.0371 31.2961 62.0371C31.7628 62.0293 32.0428 62.3793 32.0428 62.9705C32.0428 63.8883 32.0428 64.8061 32.0428 65.7239C32.0428 66.4162 32.5562 66.984 33.2407 67.0618C33.9096 67.1396 34.5863 66.6884 34.6796 65.9962C34.7574 65.4128 34.7263 64.8139 34.7418 64.215C34.7496 63.7405 34.7341 63.2582 34.7496 62.7838C34.7574 62.356 35.0685 62.0293 35.4652 62.0293C35.8697 62.0293 36.173 62.3404 36.173 62.7838C36.1808 63.3283 36.173 63.8727 36.173 64.4094C36.1808 64.4094 36.1964 64.4094 36.2041 64.4094Z" fill="white"/>
<path d="M27.2125 64.0593C27.6715 63.4681 28.0915 62.9159 28.5271 62.3792C28.8226 62.0136 29.2193 61.9436 29.546 62.1847C29.9194 62.4648 29.9816 62.8303 29.6938 63.2348C29.2893 63.8026 28.8771 64.3626 28.4259 64.8993C28.177 65.1949 28.1693 65.3816 28.4182 65.6771C28.8693 66.2061 29.2815 66.7739 29.686 67.3417C29.9738 67.7461 29.9194 68.1195 29.546 68.3917C29.2349 68.6173 28.7915 68.5317 28.5193 68.1895C28.0915 67.645 27.6715 67.0928 27.2125 66.5016C26.777 67.0694 26.3569 67.6061 25.9447 68.1428C25.6491 68.5162 25.2213 68.6251 24.9024 68.3995C24.5057 68.1273 24.4513 67.7306 24.778 67.2872C25.268 66.6183 25.7736 65.9727 26.2947 65.2882C25.7891 64.6271 25.2913 63.9737 24.7935 63.3204C24.5757 63.0326 24.4513 62.7448 24.6924 62.4025C25.0035 61.9592 25.5247 61.9125 25.8669 62.3403C26.3181 62.877 26.7381 63.4448 27.2125 64.0593Z" fill="white"/>
<path d="M13.0041 74.9875C13.1985 74.5986 13.3852 74.233 13.5641 73.8675C13.9141 73.1519 14.2719 72.4363 14.6219 71.7207C14.8475 71.254 15.1664 71.0829 15.5787 71.184C15.9209 71.2696 16.1309 71.5962 16.1309 72.0552C16.1309 74.4119 16.1309 76.761 16.1309 79.1177C16.1309 79.67 15.8431 79.9889 15.3609 79.9811C14.8864 79.9733 14.6297 79.6856 14.6297 79.1333C14.6297 77.8732 14.6297 76.6054 14.5519 75.3142C14.2875 75.8431 14.0075 76.372 13.7508 76.9165C13.5952 77.2354 13.4085 77.4921 13.0118 77.4921C12.5918 77.4999 12.3974 77.2354 12.2418 76.901C11.9929 76.372 11.7207 75.8431 11.3862 75.3298C11.3862 76.0609 11.3862 76.7843 11.3862 77.5154C11.3862 78.0755 11.394 78.6277 11.3862 79.1877C11.3784 79.6778 11.0829 79.9889 10.6317 79.9811C10.165 79.9811 9.89279 79.6933 9.89279 79.18C9.89279 76.7843 9.89279 74.3964 9.89279 72.0007C9.89279 71.5574 10.095 71.254 10.445 71.1762C10.8495 71.0829 11.1684 71.2618 11.3784 71.6896C11.8762 72.7241 12.3818 73.7508 12.8796 74.7853C12.9107 74.8397 12.9418 74.8942 13.0041 74.9875Z" fill="white"/>
<path d="M38.4543 79.6157C37.7931 80.0046 37.0931 80.0669 36.3853 79.9113C35.2341 79.6624 34.3707 78.6824 34.2696 77.4456C34.1918 76.4811 34.1607 75.5166 34.783 74.6532C35.4519 73.7354 36.7197 73.2921 37.8554 73.6343C38.9832 73.9688 39.831 75.0422 39.8388 76.1778C39.8466 77.1345 39.831 78.0912 39.8466 79.0479C39.8543 79.4291 39.7766 79.7635 39.411 79.9191C39.0376 80.0746 38.7032 79.9735 38.4543 79.6157ZM35.7086 76.7689C35.7086 76.9089 35.7086 77.0567 35.7086 77.1967C35.7164 77.8501 36.0897 78.3401 36.7042 78.5035C37.3031 78.6668 37.8865 78.4179 38.2132 77.8423C38.5243 77.2901 38.4232 76.6834 38.3609 76.1C38.2987 75.5477 37.9331 75.1822 37.4198 75.0344C36.9064 74.8788 36.4319 75.0266 36.043 75.4233C35.6619 75.8122 35.7008 76.2867 35.7086 76.7689Z" fill="white"/>
<path d="M27.8526 75.859C27.8526 75.3456 27.8526 74.8245 27.8526 74.3111C27.8526 73.8522 28.1638 73.5177 28.5682 73.5177C28.9883 73.5099 29.2838 73.8133 29.2838 74.3033C29.2916 75.2367 29.276 76.1623 29.2916 77.0957C29.3149 78.1302 30.1239 78.7602 31.0495 78.488C31.5939 78.3246 31.9673 77.858 31.9751 77.2901C31.9829 76.3101 31.9751 75.3223 31.9829 74.3422C31.9906 73.7122 32.5662 73.3233 33.0562 73.6266C33.2351 73.7355 33.4296 73.9766 33.4374 74.1633C33.4529 75.3612 33.484 76.5668 33.3752 77.7568C33.2663 78.8847 32.1773 79.8414 31.1039 79.9736C29.4938 80.1759 28.4516 79.1958 28.0627 78.278C27.7593 77.5624 27.8915 76.8312 27.8526 76.1001C27.8449 76.0145 27.8526 75.9367 27.8526 75.859Z" fill="white"/>
<path d="M16.8698 75.8823C16.8698 75.3534 16.862 74.8244 16.8698 74.2955C16.8776 73.8133 17.1654 73.5099 17.5854 73.5099C17.9899 73.5099 18.301 73.8444 18.301 74.3033C18.301 75.2445 18.301 76.1934 18.301 77.1346C18.3088 77.8579 18.7366 78.3869 19.4055 78.5269C20.0355 78.6513 20.65 78.3013 20.9145 77.6479C20.9767 77.5001 21 77.3212 21 77.1579C21.0078 76.2167 21 75.2678 21.0078 74.3266C21.0078 73.8522 21.2878 73.5333 21.7001 73.5099C22.0968 73.4944 22.4623 73.8211 22.4623 74.2722C22.4623 75.4234 22.4779 76.5745 22.4079 77.7179C22.3457 78.7135 21.2567 79.7636 20.2067 79.9503C18.6821 80.2147 17.1887 79.2813 16.9243 77.819C16.8154 77.1968 16.9087 76.5356 16.9087 75.8901C16.9009 75.8823 16.8854 75.8823 16.8698 75.8823Z" fill="white"/>
<path d="M24.7569 75.0498C24.7569 75.9132 24.7335 76.7299 24.7647 77.5388C24.788 78.0444 25.3247 78.5033 25.838 78.55C26.0403 78.5655 26.2503 78.55 26.4603 78.5655C26.8337 78.6044 27.1526 78.9545 27.137 79.2889C27.1292 79.6467 26.8103 79.9501 26.4292 79.9734C24.9047 80.0823 23.7224 79.2889 23.3879 77.92C23.3335 77.6944 23.3257 77.461 23.3257 77.2277C23.3179 75.4932 23.3179 73.7664 23.3257 72.0319C23.3257 71.503 23.5824 71.184 24.0024 71.1763C24.4146 71.1685 24.7335 71.5418 24.7413 72.0474C24.7491 72.553 24.7413 73.0508 24.7413 73.6264C25.0291 73.6264 25.2936 73.6186 25.558 73.6264C26.0247 73.642 26.3281 73.9064 26.3436 74.3031C26.3592 74.7231 26.0636 75.0187 25.5736 75.042C25.3247 75.0654 25.068 75.0498 24.7569 75.0498Z" fill="white"/>
<path d="M40.8422 74.6223C40.8422 73.7278 40.8422 72.8411 40.8422 71.9466C40.8422 71.5655 41.0367 71.301 41.4022 71.1999C41.7211 71.1066 42.0089 71.2388 42.1567 71.5266C42.2423 71.6899 42.2578 71.8999 42.2578 72.0866C42.2656 73.72 42.2734 75.3457 42.2578 76.9791C42.2501 77.7258 42.499 78.3014 43.199 78.6514C43.5879 78.8459 43.6968 79.2425 43.5179 79.6081C43.3468 79.9581 42.9812 80.0748 42.5534 79.9115C41.5889 79.5381 40.85 78.3947 40.8422 77.228C40.8344 76.3568 40.8422 75.4857 40.8422 74.6223Z" fill="white"/>
<path d="M35.5708 8.87461C35.7276 11.1952 34.5046 13.2649 32.7485 15.0837C30.8356 17.0593 30.8356 19.6308 32.6857 21.4496C34.4418 23.1743 37.1387 23.143 38.9262 21.1674C43.1283 16.5262 49.996 17.5297 52.881 22.1395C55.0448 25.6204 54.2922 30.7005 51.0622 33.3347C47.7381 36.0316 42.752 35.8748 39.7729 32.9897C39.1771 32.4253 38.5813 31.7981 37.8914 31.3904C35.9785 30.3242 33.7833 30.826 32.4349 32.488C31.1178 34.15 31.1805 36.1884 32.4662 37.9445C33.5638 39.4183 34.8182 40.8922 35.5081 42.5542C37.0447 46.2233 35.6021 49.2651 32.9053 51.7738C30.6474 53.9062 26.7275 54.2825 23.6543 52.84C18.5742 50.4254 17.3198 43.5264 21.177 39.387C22.1491 38.3208 23.278 37.3486 23.2467 35.6866C23.2467 33.7424 22.3059 32.1117 20.6752 31.4218C18.8564 30.6378 16.9748 31.0141 15.5637 32.5507C13.2745 35.0281 10.5462 36.1256 7.15946 35.4671C3.74132 34.8086 1.13852 31.9862 0.417257 28.1291C-0.147206 25.0245 1.70297 21.3242 4.71345 19.5681C7.6612 17.8747 11.6752 18.1883 14.2466 20.352C15.0933 21.0419 15.8146 21.92 16.7553 22.4217C18.731 23.4879 20.9888 22.7667 22.3373 20.8224C23.5603 19.0663 23.3721 16.9339 21.6787 15.3346C19.7344 13.4844 18.4801 11.4147 18.4801 8.6551C18.5114 3.82581 22.3059 0 27.1038 0C31.8704 0 35.5394 3.76309 35.5708 8.87461ZM50.4977 26.7806C50.5291 23.7702 48.5221 21.6691 45.6371 21.6378C42.8147 21.6378 40.5255 23.8329 40.5255 26.6238C40.4942 29.3521 42.7207 31.6099 45.4175 31.6413C48.3653 31.704 50.4664 29.697 50.4977 26.7806ZM27.4801 50.1431C30.2397 50.1431 32.5917 47.7912 32.5603 45.0943C32.4976 42.3975 30.1457 40.0769 27.4174 40.1082C24.7205 40.1082 22.3373 42.4915 22.3686 45.157C22.3686 47.9166 24.6892 50.1745 27.4801 50.1431ZM27.0725 13.5158C29.9575 13.5158 32.1213 11.352 32.0899 8.49831C32.0586 5.80143 29.8321 3.57493 27.1038 3.51221C24.3756 3.4495 22.0237 5.80143 22.0237 8.52966C22.0237 11.3833 24.1561 13.5158 27.0725 13.5158ZM8.88421 32.0176C11.6752 32.049 13.9957 29.8225 13.9957 27.0315C13.9957 24.2719 11.6438 21.9513 8.91556 21.9827C6.21868 22.0141 3.96083 24.2406 3.89811 26.9374C3.80403 29.697 6.09325 31.9862 8.88421 32.0176Z" fill="white"/>
<path d="M49.0238 26.655C49.0238 28.662 47.5813 30.1045 45.6056 30.1359C43.63 30.1359 41.9994 28.5366 42.0621 26.5923C42.1248 24.7108 43.7241 23.1428 45.6056 23.1742C47.5185 23.1742 49.0238 24.7421 49.0238 26.655Z" fill="white"/>
<path d="M27.3547 48.6071C25.5045 48.5757 23.8425 46.9451 23.8738 45.1262C23.9052 43.3388 25.63 41.6767 27.4174 41.6454C29.3617 41.6454 30.9924 43.3074 30.9296 45.2517C30.8669 47.1959 29.3303 48.6071 27.3547 48.6071Z" fill="white"/>
<path d="M30.5219 8.59247C30.5219 10.5681 29.0794 11.9793 27.0724 11.9793C25.1282 11.9793 23.5916 10.5054 23.5602 8.59247C23.5289 6.71093 25.285 4.98618 27.1665 5.0489C29.0481 5.11162 30.5219 6.67957 30.5219 8.59247Z" fill="white"/>
<path d="M12.365 27.2199C12.3023 29.1956 10.8284 30.544 8.7901 30.4813C6.87719 30.4186 5.27788 28.7565 5.37196 26.9377C5.46604 25.1816 7.25351 23.4569 9.00961 23.4882C10.8912 23.5196 12.4591 25.213 12.365 27.2199Z" fill="white"/>
</svg>
