<svg width="79" height="80" viewBox="0 0 79 80" fill="none" xmlns="http://www.w3.org/2000/svg">
<g clip-path="url(#clip0)">
<path d="M3.84355 5.64215C3.84355 8.2538 3.84355 10.6683 3.84355 13.1075C3.84355 26.1164 3.84355 39.1254 3.84355 52.1343C3.84355 52.5531 3.89283 52.972 3.81892 53.3662C3.64645 54.3271 3.0305 54.8938 2.04497 54.9184C1.03481 54.943 0.418855 54.3764 0.22175 53.4401C0.147835 53.0952 0.172474 52.701 0.172474 52.3314C0.172474 35.7499 0.172474 19.1685 0.172474 2.58703C0.172474 2.51311 0.172474 2.41456 0.172474 2.34064C0.0985592 1.4044 0.320302 0.615976 1.23191 0.17249C2.09425 -0.246358 2.80875 0.123213 3.49862 0.640614C9.48568 5.17403 15.4974 9.68281 21.4845 14.1916C25.7715 17.4192 30.0585 20.6714 34.3702 23.8744C35.2079 24.4903 35.6021 25.2048 35.6021 26.2396C35.5775 35.0108 35.5775 43.8066 35.5775 52.5778C35.5775 52.6517 35.5775 52.7502 35.5775 52.8242C35.5282 54.2039 34.863 54.943 33.6803 54.9184C32.5962 54.8938 31.9064 54.13 31.8817 52.8734C31.8571 51.9372 31.8817 50.9763 31.8817 50.0401C31.8817 42.624 31.8817 35.1833 31.8817 27.7672C31.8817 27.1266 31.8325 26.6092 31.2411 26.1657C22.2729 19.4641 13.3292 12.7133 4.38559 5.98709C4.28704 5.88854 4.16385 5.83926 3.84355 5.64215Z" fill="#05C59F"/>
<path d="M73.4955 5.51892C70.1201 8.05665 66.9664 10.4465 63.8127 12.7872C57.9981 17.1481 52.2082 21.5091 46.3936 25.8454C45.6544 26.3874 45.3834 26.9541 45.3834 27.8903C45.4327 36.0209 45.408 44.1269 45.408 52.2574C45.408 52.6763 45.4327 53.0951 45.3341 53.4893C45.0631 54.4256 44.4472 54.9676 43.437 54.8937C42.4515 54.8198 41.8601 54.2531 41.737 53.2676C41.6877 52.9473 41.7123 52.6024 41.7123 52.2821C41.7123 43.708 41.737 35.1339 41.6877 26.5599C41.6877 25.328 42.0573 24.4903 43.0674 23.7511C53.3169 16.0887 63.5417 8.40158 73.7665 0.689852C74.5057 0.147813 75.2202 -0.246397 76.1318 0.19709C77.0434 0.640576 77.1666 1.47827 77.1666 2.38988C77.1666 19.0945 77.1666 35.7745 77.1666 52.4792C77.1666 52.7995 77.1666 53.1444 77.0927 53.4647C76.8709 54.4256 76.2303 54.943 75.2202 54.8937C74.2346 54.8444 73.6433 54.2778 73.5201 53.2922C73.4709 52.898 73.4955 52.4792 73.4955 52.0603C73.4955 37.0804 73.4955 22.1004 73.4955 7.14504C73.4955 6.70155 73.4955 6.25807 73.4955 5.51892Z" fill="#536C7C"/>
<path d="M1.37974 68.0506C1.37974 71.4013 1.40437 74.7028 1.3551 78.0044C1.3551 78.6696 1.79858 79.8276 0.78842 79.8522C-0.369572 79.9015 0.0985527 78.6696 0.0739145 78.0044C0.0246383 74.1115 0.0492764 70.2187 0.0739145 66.3259C0.0739145 65.7592 -0.221743 64.9708 0.542039 64.6998C1.37974 64.4041 1.50293 65.3157 1.79858 65.7838C3.745 68.9622 5.66677 72.1405 7.6871 75.4666C9.28857 72.855 10.8161 70.3419 12.3437 67.8288C12.8365 67.0157 13.3046 66.2027 13.822 65.4143C14.0437 65.0447 14.1916 64.5027 14.8075 64.6751C15.3988 64.8476 15.2756 65.365 15.2756 65.8085C15.2756 69.3317 15.2756 72.855 15.2756 76.3782C15.2756 77.0681 15.3003 77.7826 15.2756 78.4725C15.251 79.0392 15.5467 79.9508 14.635 79.9015C13.7481 79.8768 14.0437 78.9652 14.0437 78.3986C14.0191 75.2449 14.0437 72.0912 14.0191 68.9375C14.0191 68.6665 13.9945 68.3955 13.9698 67.7303C12.8118 69.6027 11.8509 71.1796 10.8901 72.7564C10.1509 73.9883 9.41177 75.2202 8.67262 76.4275C7.8842 77.6841 7.56391 77.6841 6.82476 76.4521C5.24792 73.9637 3.745 71.4752 2.21743 68.9868C2.02033 68.6665 1.94641 68.223 1.37974 68.0506Z" fill="#536C7C"/>
<path d="M68.6418 72.1652C68.6418 70.0216 68.6665 67.9028 68.6172 65.7592C68.5925 64.8476 68.9621 64.5273 69.8491 64.552C71.3274 64.6012 72.8057 64.5273 74.284 64.5766C76.4275 64.6259 78.2507 66.0795 78.5956 67.952C78.9652 69.9231 77.9058 71.7463 75.7869 72.5594C75.0231 72.855 75.097 73.126 75.368 73.7174C76.1811 75.3188 76.9695 76.945 77.7579 78.5711C77.9797 79.0146 78.2753 79.532 77.684 79.8523C77.0434 80.1972 76.8463 79.5812 76.6246 79.1624C75.7622 77.4377 74.8753 75.7377 74.0868 73.9884C73.7173 73.1753 73.2492 72.855 72.3375 72.8797C69.9969 72.9536 69.9969 72.9043 69.9969 75.1957C69.9969 76.4276 69.9969 77.6595 69.9969 78.8914C69.9969 79.3595 69.923 79.8769 69.307 79.8523C68.6911 79.8276 68.6665 79.3349 68.6665 78.8667C68.6418 76.6 68.6418 74.3826 68.6418 72.1652ZM72.5346 65.8085C72.5346 65.8332 72.5346 65.8331 72.5346 65.8578C71.9187 65.8578 71.3027 65.8578 70.6868 65.8578C70.2433 65.8578 69.9969 66.0056 69.9969 66.4984C69.9969 68.0013 69.9969 69.5289 69.9969 71.0318C69.9969 71.4506 70.2187 71.6231 70.6129 71.5985C72.0912 71.5492 73.5694 71.7709 75.0231 71.4753C76.4275 71.1796 77.3884 69.997 77.3884 68.7158C77.3884 67.4346 76.3536 66.252 74.9738 66.0056C74.1608 65.8332 73.3477 65.8578 72.5346 65.8085Z" fill="#536C7C"/>
<path d="M53.7111 72.2637C53.7111 70.1202 53.7357 68.0013 53.7111 65.8578C53.6865 64.9462 53.9329 64.5027 54.9677 64.5273C57.4561 64.5766 59.9692 64.552 62.4823 64.552C62.9504 64.552 63.4924 64.552 63.5171 65.1433C63.5663 65.8578 62.975 65.8332 62.4576 65.8332C60.3141 65.8332 58.1952 65.8578 56.0517 65.7839C55.214 65.7592 54.9923 66.0549 55.0169 66.8433C55.0662 68.1245 55.0662 69.381 55.0169 70.6622C54.9923 71.3521 55.214 71.5985 55.9285 71.5738C57.4561 71.5246 58.959 71.5492 60.4866 71.5738C60.9301 71.5738 61.4968 71.5492 61.5214 72.1652C61.5707 72.855 61.004 72.8797 60.4866 72.8797C58.959 72.8797 57.4561 72.9043 55.9285 72.855C55.2387 72.8304 54.9923 73.0275 55.0169 73.742C55.0662 75.0232 55.0908 76.2797 55.0169 77.5609C54.9677 78.4972 55.3619 78.645 56.1749 78.6203C58.2199 78.5711 60.2648 78.5957 62.3344 78.6203C62.8518 78.6203 63.5417 78.5464 63.5171 79.3349C63.4924 80.0001 62.8765 79.9508 62.3837 79.9508C59.9199 79.9508 57.4561 79.9262 54.9923 79.9754C53.9821 80.0001 53.7111 79.5566 53.7357 78.645C53.7357 76.5261 53.7111 74.3826 53.7111 72.2637Z" fill="#536C7C"/>
<path d="M39.7413 72.8796C41.9587 70.5389 44.2008 68.223 46.4182 65.8823C46.6892 65.5867 46.9849 65.291 47.2559 64.9954C47.5516 64.6504 47.9211 64.4287 48.3154 64.7983C48.7096 65.1678 48.5125 65.5374 48.2168 65.8577C47.2559 66.8679 46.295 67.878 45.3341 68.8882C44.5211 69.7505 43.7327 70.6375 42.8703 71.4506C42.3037 71.968 42.3529 72.3129 42.8703 72.8303C44.5457 74.5303 46.1718 76.255 47.798 77.9797C47.9704 78.1521 48.1429 78.3246 48.3154 78.5217C48.6357 78.8913 49.1038 79.2855 48.5371 79.7536C48.069 80.1478 47.6994 79.7782 47.3791 79.4333C46.2458 78.2507 45.1124 77.0434 44.0037 75.8608C43.5848 75.4173 43.1906 74.9245 42.7225 74.5303C42.2051 74.1115 41.9834 73.2245 41.1703 73.2984C40.5543 73.3477 39.4703 75.1709 39.4703 75.9347C39.4703 76.8709 39.4703 77.8318 39.4703 78.7681C39.4703 79.2362 39.3964 79.729 38.805 79.7536C38.2137 79.7782 38.1152 79.2855 38.1152 78.8174C38.1152 74.3825 38.1152 69.9723 38.1152 65.5374C38.1152 65.0446 38.1891 64.5519 38.7804 64.5519C39.4703 64.5519 39.4949 65.1186 39.4949 65.6113C39.4949 67.9766 39.4949 70.3418 39.4949 72.7317C39.5442 72.8057 39.6427 72.8549 39.7413 72.8796Z" fill="#536C7C"/>
<path d="M33.3846 79.113C33.4093 79.5565 33.2615 79.7783 32.9658 79.9015C32.5962 80.0247 32.3252 79.8522 32.1774 79.5073C31.8324 78.7188 31.4629 77.9304 31.1919 77.1174C30.9701 76.526 30.6498 76.3289 30.0092 76.3289C27.9643 76.3782 25.9193 76.3782 23.8743 76.3289C23.2337 76.3043 22.8888 76.526 22.7163 77.142C22.5192 77.7333 22.2729 78.3 22.0018 78.842C21.7801 79.3102 21.7555 80.1725 20.9178 79.8522C20.1047 79.5319 20.5975 78.8913 20.7946 78.3985C22.3961 74.5057 24.0222 70.6129 25.6236 66.7201C25.8207 66.2766 26.0179 65.8085 26.1903 65.365C26.3381 65.02 26.4613 64.6258 26.9048 64.6012C27.4222 64.5766 27.5701 64.9708 27.7425 65.365C28.5309 67.2621 29.3194 69.1346 30.1078 71.0317C31.1426 73.5202 32.1774 76.0333 33.1875 78.5217C33.2368 78.7681 33.3354 78.9899 33.3846 79.113ZM26.9295 66.9418C25.8207 69.6274 24.8106 72.0173 23.8004 74.4318C23.5787 74.9492 23.8497 75.0724 24.3178 75.0724C26.0671 75.0724 27.8411 75.0724 29.5904 75.0724C29.96 75.0724 30.3049 75.0478 30.0831 74.5304C29.073 72.0912 28.0628 69.652 26.9295 66.9418Z" fill="#536C7C"/>
</g>
<defs>
<clipPath id="clip0">
<rect width="78.6942" height="80" fill="white"/>
</clipPath>
</defs>
</svg>
