<svg width="72" height="80" viewBox="0 0 72 80" fill="none" xmlns="http://www.w3.org/2000/svg">
<path d="M45.9893 37.2967C45.7147 36.8261 45.4715 36.4025 45.1891 35.924C33.8618 42.4662 22.558 48.9928 11.2071 55.5507C10.9326 55.0957 10.6737 54.6486 10.3913 54.1779C6.99466 56.139 3.63725 58.0766 0.201393 60.0612C0.201393 59.8181 0.224926 59.6376 0.193548 59.4729C0.154326 59.2062 0.279837 59.0807 0.499481 58.9552C3.04892 57.4961 5.59051 56.0214 8.1321 54.5545C19.1221 48.2083 30.1122 41.8622 41.1022 35.516C50.3586 30.1661 59.6229 24.8241 68.8793 19.4664C69.146 19.3095 69.3343 19.3173 69.5774 19.4742C70.0403 19.7723 70.5266 20.0155 70.9894 20.3136C71.0914 20.3763 71.1934 20.5489 71.1934 20.6744C71.2169 21.2314 71.1856 21.7962 71.2091 22.3609C71.2248 22.6512 71.1228 22.8002 70.8796 22.9414C68.8636 24.0946 66.8554 25.2634 64.8394 26.4244C58.6659 29.9936 52.4923 33.5549 46.3187 37.1241C46.2324 37.1634 46.1226 37.2183 45.9893 37.2967Z" fill="#5A00EC"/>
<path d="M71.2091 24.5729C71.2091 26.1025 71.2169 27.5538 71.1934 28.9971C71.1934 29.1226 71.0365 29.2795 70.911 29.3501C68.7224 30.6209 66.526 31.8917 64.3374 33.1547C58.2579 36.669 52.1707 40.1833 46.0912 43.6976C46.0206 43.7368 45.9579 43.776 45.8481 43.8388C45.5814 43.3917 45.3225 42.9445 45.0322 42.466C33.7284 48.9926 22.4403 55.5191 11.1051 62.0614C10.8384 61.6064 10.5874 61.1671 10.3128 60.7043C10.1952 60.7592 10.0854 60.7984 9.99123 60.8533C8.40665 61.7633 6.80639 62.6497 5.2532 63.6146C4.70409 63.9519 4.28833 63.9754 3.8412 63.4812C26.2684 50.5301 48.7034 37.5711 71.2091 24.5729Z" fill="#5A00EC"/>
<path d="M71.2091 31.021C71.2091 31.7348 71.2091 32.3702 71.2091 33.0056C71.2091 33.7665 71.1934 34.5196 71.2169 35.2805C71.2248 35.5472 71.1385 35.6963 70.9031 35.8296C66.3769 38.434 61.8507 41.0462 57.3323 43.6584C53.6219 45.7999 49.9115 47.9414 46.2089 50.0829C46.0991 50.1457 45.9893 50.2084 45.8481 50.279C45.5814 49.8241 45.3225 49.3848 45.0401 48.9141C35.6268 54.3503 26.237 59.7786 16.8002 65.2227C16.5335 64.7677 16.2668 64.3284 15.9844 63.8577C15.2078 64.3049 14.439 64.7442 13.6703 65.1913C12.6897 65.7561 11.7013 66.3287 10.7208 66.9014C10.1089 67.2544 10.0304 67.2465 9.42642 66.7209C29.9945 54.821 50.5626 42.9445 71.2091 31.021Z" fill="#5A00EC"/>
<path d="M11.2071 49.0946C10.9326 48.6318 10.6737 48.1925 10.3913 47.7219C7.01034 49.6751 3.63724 51.6205 0.256295 53.5738C0.115095 52.7266 0.115095 52.7188 0.789716 52.3344C14.3998 44.4743 28.0099 36.6142 41.6278 28.7541C48.8603 24.573 56.1007 20.3997 63.3333 16.2108C63.5529 16.0853 63.702 16.0618 63.9295 16.1951C65.0512 16.8619 66.1886 17.5052 67.3182 18.1641C67.4045 18.2111 67.4908 18.2739 67.6163 18.3602C60.3838 22.5334 53.2061 26.6831 45.9893 30.8485C45.7147 30.3778 45.4637 29.9464 45.1891 29.4679C33.8539 36.018 22.5423 42.5446 11.2071 49.0946Z" fill="#5A00EC"/>
<path d="M45.0323 55.3703C37.4624 59.7396 29.9474 64.0776 22.3776 68.4548C22.1109 67.9998 21.852 67.5605 21.5696 67.082C21.0832 67.3644 20.6126 67.6311 20.1419 67.9057C18.8633 68.643 17.5846 69.3804 16.306 70.1178C15.6784 70.4786 15.6314 70.4708 15.0038 69.9374C33.7284 59.1199 52.4374 48.3181 71.1934 37.485C71.2012 37.6497 71.2091 37.7595 71.2091 37.8694C71.2091 39.148 71.2012 40.4266 71.2169 41.7131C71.2169 42.0034 71.1306 42.1524 70.8796 42.2936C66.0553 45.0705 61.2388 47.8475 56.4224 50.6322C52.9943 52.609 49.5742 54.5937 46.1462 56.5705C46.0599 56.6254 45.9657 56.6724 45.8402 56.7352C45.5814 56.2881 45.3147 55.8409 45.0323 55.3703Z" fill="#5A00EC"/>
<path d="M11.1993 42.6467C10.9169 42.1603 10.6737 41.7367 10.3991 41.266C7.01034 43.2193 3.63724 45.1726 0.264138 47.118C0.224916 47.0631 0.209227 47.0395 0.201383 47.0239C0.0837165 46.4512 0.319049 46.1374 0.83678 45.8393C13.6546 38.4577 26.4645 31.0605 39.2744 23.6553C45.3931 20.1253 51.5117 16.5953 57.6225 13.0497C57.9363 12.8692 58.1559 12.8771 58.4619 13.0575C59.615 13.7478 60.7838 14.4068 62.0311 15.1284C54.8142 19.3017 47.6366 23.4514 40.4119 27.6246C40.1452 27.1696 39.8863 26.7303 39.6039 26.244C30.1357 31.7115 20.691 37.1713 11.1993 42.6467Z" fill="#5A00EC"/>
<path d="M45.8402 63.191C45.5657 62.7124 45.3068 62.281 45.0401 61.8103C39.3372 65.105 33.6657 68.3761 27.9628 71.6708C27.6961 71.208 27.4372 70.7765 27.1627 70.3059C27.0058 70.3921 26.8567 70.4706 26.7155 70.549C25.1231 71.4668 23.5228 72.3846 21.9304 73.3103C21.2558 73.7025 21.2558 73.6946 20.589 73.1612C37.4545 63.4184 54.3044 53.6914 71.2091 43.925C71.2091 44.1212 71.2091 44.2388 71.2091 44.3643C71.2091 45.6194 71.1934 46.8746 71.2169 48.1297C71.2248 48.4513 71.1071 48.616 70.8404 48.7651C66.1024 51.4949 61.3643 54.2326 56.6263 56.9703C53.2454 58.9236 49.8644 60.8769 46.4835 62.8301C46.2874 62.9399 46.0834 63.0576 45.8402 63.191Z" fill="#5A00EC"/>
<path d="M56.4459 11.912C49.1741 16.1087 41.9494 20.2898 34.6776 24.4866C34.4031 24.0237 34.1442 23.5766 33.8697 23.1138C26.2998 27.4753 18.7691 31.8289 11.1993 36.1983C10.9247 35.7276 10.6737 35.2962 10.3991 34.8177C7.01035 36.7709 3.64509 38.7163 0.279834 40.6618C0.0837233 39.9714 0.154323 39.8067 0.73481 39.4694C15.4823 30.9582 30.222 22.447 44.9695 13.928C47.3542 12.5474 49.7389 11.1746 52.1236 9.78613C52.3825 9.62924 52.5786 9.63709 52.8296 9.78613C53.9122 10.4294 55.0104 11.0569 56.1086 11.6923C56.2027 11.7472 56.2969 11.8178 56.4459 11.912Z" fill="#5A00EC"/>
<path d="M45.8402 69.6311C45.5735 69.1761 45.3146 68.7447 45.0401 68.274C41.2042 70.4861 37.3918 72.6904 33.548 74.9104C33.2735 74.4397 33.0224 74.0004 32.7479 73.5376C32.0184 73.9534 31.3202 74.3534 30.622 74.7613C29.5944 75.3575 28.5354 75.9066 27.547 76.5577C27.0136 76.9107 26.6292 76.8323 26.1743 76.393C41.1649 67.7327 56.1478 59.0803 71.1777 50.4044C71.1934 50.5378 71.2091 50.6319 71.2091 50.726C71.2091 51.9968 71.1934 53.2598 71.2169 54.5306C71.2247 54.8993 71.0992 55.0797 70.7933 55.2523C64.0863 59.1117 57.3794 62.9869 50.6724 66.862C49.1663 67.7327 47.668 68.5956 46.1618 69.4664C46.0677 69.5134 45.9657 69.5605 45.8402 69.6311Z" fill="#5A00EC"/>
<path d="M50.8764 8.67211C43.581 12.8846 36.3485 17.0578 29.0846 21.2546C28.81 20.7917 28.5511 20.3446 28.2766 19.8739C22.5737 23.1686 16.91 26.4397 11.2071 29.7344C10.9326 29.2716 10.6658 28.8244 10.3913 28.3616C6.99466 30.3227 3.63724 32.2603 0.201385 34.2449C0.201385 33.939 0.170007 33.688 0.217074 33.4526C0.232763 33.3428 0.366118 33.2252 0.47594 33.1624C3.45682 31.4288 6.4377 29.7108 9.42643 27.9851C21.7892 20.8467 34.1599 13.7004 46.5227 6.55412C46.7816 6.40507 46.962 6.38939 47.2287 6.54627C48.4132 7.26012 49.6134 7.94258 50.8764 8.67211Z" fill="#5A00EC"/>
<path d="M71.2091 56.8291C71.2091 58.3588 71.2169 59.7943 71.1934 61.2298C71.1934 61.3632 71.0365 61.5436 70.9031 61.622C68.6675 62.9242 66.4318 64.2107 64.1883 65.505C58.1638 68.9879 52.1393 72.463 46.1148 75.946C46.0363 75.993 45.9579 76.0322 45.8402 76.095C45.5735 75.6479 45.3146 75.2007 45.0322 74.7301C43.0476 75.8754 41.1022 76.9971 39.1332 78.1345C38.8587 77.6639 38.5998 77.2324 38.3331 76.7696C37.9644 76.9814 37.6114 77.1775 37.2663 77.3736C35.8857 78.1659 34.4893 78.9347 33.1401 79.7819C32.5988 80.1192 32.2223 80.0643 31.7673 79.625C44.891 72.0237 58.0148 64.446 71.2091 56.8291Z" fill="#5A00EC"/>
<path d="M45.2754 5.45609C37.988 9.66854 30.7633 13.8339 23.4993 18.0307C23.2326 17.5679 22.9659 17.1286 22.6914 16.6579C18.8554 18.87 15.0509 21.0665 11.2071 23.2865C10.9326 22.8315 10.6737 22.3922 10.3913 21.9137C7.0025 23.8748 3.64509 25.8124 0.27199 27.7578C0.0994123 26.9969 0.13079 26.9027 0.750499 26.5497C14.1252 18.823 27.5 11.0962 40.8747 3.36947C41.1807 3.1969 41.4003 3.17336 41.7141 3.36163C42.7652 3.99703 43.8321 4.60105 44.8989 5.21291C45.0009 5.28351 45.1107 5.35411 45.2754 5.45609Z" fill="#5A00EC"/>
<path d="M39.6981 2.23181C32.4184 6.43642 25.1937 10.6097 17.9219 14.8143C17.6552 14.3593 17.3964 13.9122 17.1218 13.4336C15.145 14.5711 13.1918 15.7007 11.215 16.846C10.9482 16.3831 10.6894 15.9517 10.4148 15.4653C7.0182 17.4265 3.65294 19.3719 0.217082 21.3487C0.217082 21.0427 0.185705 20.8074 0.232771 20.5878C0.256305 20.4622 0.38966 20.3367 0.507326 20.2661C2.85281 18.9012 5.20613 17.5441 7.55946 16.187C16.808 10.8293 26.0801 5.47156 35.3444 0.113818C35.6189 -0.0430708 35.8151 -0.0352264 36.0818 0.121662C37.1486 0.75706 38.2233 1.36892 39.298 1.98863C39.4157 2.05139 39.5176 2.12199 39.6981 2.23181Z" fill="#5A00EC"/>
</svg>
